<svg width="206" height="32" viewBox="0 0 206 32" fill="none" xmlns="http://www.w3.org/2000/svg">
<path d="M0 31.3288V23.5992H1.34819V31.3288H0Z" fill="#383838"/>
<path d="M15.3407 31.3288V23.5992H16.6407L20.4084 28.4443C20.4566 28.4893 20.5087 28.5532 20.5649 28.6358C20.6291 28.7184 20.6893 28.8011 20.7455 28.8837C20.8016 28.9663 20.8417 29.0339 20.8658 29.0865H20.926C20.926 28.9738 20.926 28.8649 20.926 28.7598C20.926 28.6546 20.926 28.5494 20.926 28.4443V23.5992H22.2261V31.3288H20.9742L17.1583 26.4274C17.0941 26.3372 17.0139 26.2246 16.9176 26.0893C16.8213 25.9466 16.749 25.8377 16.7009 25.7626H16.6407C16.6407 25.8677 16.6407 25.9767 16.6407 26.0893C16.6407 26.1945 16.6407 26.3072 16.6407 26.4274V31.3288H15.3407Z" fill="#383838"/>
<path d="M38.4089 31.3288L35.3634 23.5992H36.8199L38.8663 28.9964C38.9064 29.0865 38.9465 29.1917 38.9867 29.3119C39.0268 29.4321 39.0669 29.5485 39.107 29.6612C39.1471 29.7663 39.1833 29.8602 39.2154 29.9429H39.2755C39.3076 29.8602 39.3438 29.7663 39.3839 29.6612C39.424 29.556 39.4641 29.4471 39.5043 29.3344C39.5444 29.2217 39.5845 29.1128 39.6246 29.0077L41.6469 23.5992H43.0553L39.9978 31.3288H38.4089Z" fill="#383838"/>
<path d="M56.1903 31.3288V23.5992H62.5942V24.6809H57.5385V26.833H62.0645V27.9147H57.5385V30.2471H62.6664V31.3288H56.1903Z" fill="#383838"/>
<path d="M79.3963 31.464C78.9469 31.464 78.5136 31.4189 78.0963 31.3288C77.679 31.2461 77.3099 31.1109 76.9889 30.9231C76.6679 30.7278 76.4151 30.4837 76.2305 30.1907C76.0459 29.8903 75.9536 29.5335 75.9536 29.1203C75.9536 29.0753 75.9536 29.0339 75.9536 28.9964C75.9617 28.9513 75.9657 28.9138 75.9657 28.8837H77.3139C77.3139 28.9062 77.3099 28.94 77.3018 28.9851C77.3018 29.0302 77.3018 29.0677 77.3018 29.0978C77.3018 29.3757 77.3901 29.6123 77.5667 29.8077C77.7432 30.003 77.988 30.1494 78.3009 30.2471C78.6219 30.3447 78.9871 30.3936 79.3963 30.3936C79.621 30.3936 79.8377 30.3823 80.0464 30.3598C80.255 30.3297 80.4436 30.2884 80.6121 30.2358C80.7887 30.1757 80.9411 30.1044 81.0695 30.0217C81.1979 29.9316 81.2983 29.8264 81.3705 29.7062C81.4427 29.5861 81.4788 29.4471 81.4788 29.2893C81.4788 29.049 81.4026 28.8499 81.2501 28.6922C81.1057 28.5344 80.905 28.403 80.6482 28.2978C80.3995 28.1926 80.1146 28.0987 79.7936 28.0161C79.4806 27.9335 79.1556 27.8508 78.8185 27.7682C78.4815 27.6856 78.1525 27.5879 77.8315 27.4753C77.5185 27.3626 77.2336 27.2274 76.9768 27.0696C76.7281 26.9044 76.5274 26.7015 76.375 26.4612C76.2305 26.2133 76.1583 25.9128 76.1583 25.5598C76.1583 25.2217 76.2345 24.9213 76.387 24.6584C76.5395 24.3954 76.7602 24.1776 77.049 24.0048C77.3379 23.8246 77.683 23.6893 78.0843 23.5992C78.4855 23.5091 78.9389 23.464 79.4445 23.464C79.8778 23.464 80.2871 23.5091 80.6723 23.5992C81.0575 23.6818 81.3946 23.8133 81.6835 23.9936C81.9724 24.1738 82.197 24.403 82.3575 24.6809C82.5261 24.9588 82.6103 25.2893 82.6103 25.6724V25.8077H81.2742V25.6612C81.2742 25.4208 81.1979 25.218 81.0455 25.0527C80.893 24.8875 80.6803 24.7598 80.4075 24.6696C80.1346 24.5795 79.8177 24.5344 79.4565 24.5344C79.0312 24.5344 78.6741 24.5757 78.3852 24.6584C78.0963 24.7335 77.8756 24.8424 77.7231 24.9851C77.5787 25.1203 77.5065 25.2856 77.5065 25.4809C77.5065 25.6987 77.5827 25.879 77.7352 26.0217C77.8877 26.1569 78.0883 26.2734 78.337 26.371C78.5938 26.4687 78.8787 26.5588 79.1917 26.6415C79.5127 26.7166 79.8377 26.7992 80.1667 26.8893C80.5038 26.972 80.8288 27.0696 81.1418 27.1823C81.4628 27.295 81.7477 27.4339 81.9964 27.5992C82.2532 27.7645 82.4579 27.971 82.6103 28.2189C82.7628 28.4593 82.839 28.756 82.839 29.1091C82.839 29.6649 82.6906 30.1194 82.3937 30.4724C82.0967 30.818 81.6875 31.0696 81.1658 31.2274C80.6522 31.3851 80.0624 31.464 79.3963 31.464Z" fill="#383838"/>
<path d="M98.4627 31.3288V24.6809H95.7302V23.5992H102.567V24.6809H99.8109V31.3288H98.4627Z" fill="#383838"/>
<path d="M115.848 31.3288V23.5992H117.955L119.556 28.2865C119.604 28.4217 119.652 28.5757 119.7 28.7485C119.748 28.9213 119.793 29.0865 119.833 29.2443C119.881 29.402 119.917 29.541 119.941 29.6612H120.037C120.053 29.5485 120.082 29.4133 120.122 29.2555C120.162 29.0978 120.202 28.9325 120.242 28.7598C120.29 28.587 120.338 28.4255 120.386 28.2753L121.999 23.5992H124.07V31.3288H122.734V27.0922C122.734 26.8067 122.738 26.51 122.746 26.202C122.754 25.894 122.762 25.6199 122.77 25.3795C122.778 25.1391 122.782 24.9851 122.782 24.9175H122.686C122.67 25.0001 122.629 25.1429 122.565 25.3457C122.509 25.541 122.449 25.7513 122.385 25.9767C122.32 26.202 122.26 26.3973 122.204 26.5626L120.531 31.3288H119.339L117.666 26.5738C117.618 26.4311 117.566 26.2621 117.51 26.0668C117.453 25.8715 117.397 25.6724 117.341 25.4696C117.285 25.2668 117.237 25.0828 117.197 24.9175H117.1C117.108 25.0978 117.112 25.3194 117.112 25.5823C117.12 25.8452 117.128 26.1119 117.136 26.3823C117.144 26.6452 117.148 26.8818 117.148 27.0922V31.3288H115.848Z" fill="#383838"/>
<path d="M138.066 31.3288V23.5992H144.47V24.6809H139.414V26.833H143.94V27.9147H139.414V30.2471H144.542V31.3288H138.066Z" fill="#383838"/>
<path d="M158.214 31.3288V23.5992H159.514L163.282 28.4443C163.33 28.4893 163.382 28.5532 163.439 28.6358C163.503 28.7184 163.563 28.8011 163.619 28.8837C163.675 28.9663 163.716 29.0339 163.74 29.0865H163.8C163.8 28.9738 163.8 28.8649 163.8 28.7598C163.8 28.6546 163.8 28.5494 163.8 28.4443V23.5992H165.1V31.3288H163.848L160.032 26.4274C159.968 26.3372 159.888 26.2246 159.791 26.0893C159.695 25.9466 159.623 25.8377 159.575 25.7626H159.514C159.514 25.8677 159.514 25.9767 159.514 26.0893C159.514 26.1945 159.514 26.3072 159.514 26.4274V31.3288H158.214Z" fill="#383838"/>
<path d="M181.114 31.3288V24.6809H178.382V23.5992H185.219V24.6809H182.462V31.3288H181.114Z" fill="#383838"/>
<path d="M201.557 31.464C201.108 31.464 200.675 31.4189 200.257 31.3288C199.84 31.2461 199.471 31.1109 199.15 30.9231C198.829 30.7278 198.576 30.4837 198.391 30.1907C198.207 29.8903 198.115 29.5335 198.115 29.1203C198.115 29.0753 198.115 29.0339 198.115 28.9964C198.123 28.9513 198.127 28.9138 198.127 28.8837H199.475C199.475 28.9062 199.471 28.94 199.463 28.9851C199.463 29.0302 199.463 29.0677 199.463 29.0978C199.463 29.3757 199.551 29.6123 199.728 29.8077C199.904 30.003 200.149 30.1494 200.462 30.2471C200.783 30.3447 201.148 30.3936 201.557 30.3936C201.782 30.3936 201.999 30.3823 202.207 30.3598C202.416 30.3297 202.605 30.2884 202.773 30.2358C202.95 30.1757 203.102 30.1044 203.231 30.0217C203.359 29.9316 203.459 29.8264 203.531 29.7062C203.604 29.5861 203.64 29.4471 203.64 29.2893C203.64 29.049 203.564 28.8499 203.411 28.6922C203.267 28.5344 203.066 28.403 202.809 28.2978C202.56 28.1926 202.276 28.0987 201.955 28.0161C201.642 27.9335 201.317 27.8508 200.98 27.7682C200.642 27.6856 200.313 27.5879 199.992 27.4753C199.679 27.3626 199.395 27.2274 199.138 27.0696C198.889 26.9044 198.688 26.7015 198.536 26.4612C198.391 26.2133 198.319 25.9128 198.319 25.5598C198.319 25.2217 198.395 24.9213 198.548 24.6584C198.7 24.3954 198.921 24.1776 199.21 24.0048C199.499 23.8246 199.844 23.6893 200.245 23.5992C200.646 23.5091 201.1 23.464 201.605 23.464C202.039 23.464 202.448 23.5091 202.833 23.5992C203.218 23.6818 203.556 23.8133 203.844 23.9936C204.133 24.1738 204.358 24.403 204.519 24.6809C204.687 24.9588 204.771 25.2893 204.771 25.6724V25.8077H203.435V25.6612C203.435 25.4208 203.359 25.218 203.206 25.0527C203.054 24.8875 202.841 24.7598 202.568 24.6696C202.296 24.5795 201.979 24.5344 201.617 24.5344C201.192 24.5344 200.835 24.5757 200.546 24.6584C200.257 24.7335 200.037 24.8424 199.884 24.9851C199.74 25.1203 199.667 25.2856 199.667 25.4809C199.667 25.6987 199.744 25.879 199.896 26.0217C200.049 26.1569 200.249 26.2734 200.498 26.371C200.755 26.4687 201.04 26.5588 201.353 26.6415C201.674 26.7166 201.999 26.7992 202.328 26.8893C202.665 26.972 202.99 27.0696 203.303 27.1823C203.624 27.295 203.909 27.4339 204.157 27.5992C204.414 27.7645 204.619 27.971 204.771 28.2189C204.924 28.4593 205 28.756 205 29.1091C205 29.6649 204.852 30.1194 204.555 30.4724C204.258 30.818 203.848 31.0696 203.327 31.2274C202.813 31.3851 202.223 31.464 201.557 31.464Z" fill="#383838"/>
<path d="M0 16.464V0H3.576V6.528H10.872V0H14.448V16.464H10.872V9.552H3.576V16.464H0Z" fill="#383838"/>
<path d="M19.8937 16.464L26.2297 0H30.6458L36.9818 16.464H33.1178L31.9417 13.224H24.7657L23.5898 16.464H19.8937ZM25.7977 10.344H30.9097L29.4457 6.288C29.3817 6.112 29.3017 5.904 29.2057 5.664C29.1257 5.408 29.0377 5.128 28.9417 4.824C28.8457 4.52 28.7497 4.224 28.6537 3.936C28.5737 3.632 28.4937 3.36 28.4137 3.12H28.2698C28.1898 3.424 28.0858 3.784 27.9578 4.2C27.8298 4.6 27.7017 4.992 27.5737 5.376C27.4457 5.744 27.3417 6.048 27.2617 6.288L25.7977 10.344Z" fill="#383838"/>
<path d="M42.4209 16.464V0H51.4449C52.6609 0 53.6689 0.216 54.4689 0.648C55.2849 1.08 55.8929 1.688 56.2929 2.472C56.6929 3.24 56.8929 4.128 56.8929 5.136C56.8929 6.208 56.6529 7.16 56.1729 7.992C55.6929 8.808 54.9969 9.432 54.0849 9.864L57.4449 16.464H53.4849L50.5809 10.464H45.9969V16.464H42.4209ZM45.9969 7.632H50.9649C51.6849 7.632 52.2449 7.416 52.6449 6.984C53.0449 6.536 53.2449 5.936 53.2449 5.184C53.2449 4.704 53.1569 4.296 52.9809 3.96C52.8049 3.608 52.5489 3.344 52.2129 3.168C51.8769 2.992 51.4609 2.904 50.9649 2.904H45.9969V7.632Z" fill="#383838"/>
<path d="M67.0663 16.464V3H61.7863V0H75.9703V3H70.6663V16.464H67.0663Z" fill="#383838"/>
<path d="M81.8653 16.464V0H87.3133L89.6653 8.424C89.7613 8.728 89.8573 9.088 89.9533 9.504C90.0493 9.92 90.1453 10.336 90.2413 10.752C90.3533 11.152 90.4413 11.512 90.5053 11.832H90.6973C90.7293 11.56 90.7853 11.24 90.8653 10.872C90.9453 10.488 91.0333 10.08 91.1293 9.648C91.2253 9.216 91.3293 8.8 91.4413 8.4L93.7933 0H99.1453V16.464H95.6173V8.664C95.6173 7.944 95.6173 7.224 95.6173 6.504C95.6333 5.768 95.6493 5.128 95.6653 4.584C95.6973 4.04 95.7133 3.688 95.7133 3.528H95.5213C95.4893 3.704 95.4093 4.032 95.2813 4.512C95.1693 4.976 95.0413 5.472 94.8973 6C94.7693 6.528 94.6493 6.984 94.5373 7.368L91.9693 16.464H88.8493L86.2573 7.392C86.1613 7.056 86.0493 6.664 85.9213 6.216C85.8093 5.752 85.6973 5.28 85.5853 4.8C85.4893 4.304 85.3933 3.88 85.2973 3.528H85.1053C85.1213 3.96 85.1373 4.48 85.1533 5.088C85.1693 5.68 85.1853 6.296 85.2013 6.936C85.2173 7.56 85.2253 8.136 85.2253 8.664V16.464H81.8653Z" fill="#383838"/>
<path d="M104.595 16.464L110.931 0H115.347L121.683 16.464H117.819L116.643 13.224H109.467L108.291 16.464H104.595ZM110.499 10.344H115.611L114.147 6.288C114.083 6.112 114.003 5.904 113.907 5.664C113.827 5.408 113.739 5.128 113.643 4.824C113.547 4.52 113.451 4.224 113.355 3.936C113.275 3.632 113.195 3.36 113.115 3.12H112.971C112.891 3.424 112.787 3.784 112.659 4.2C112.531 4.6 112.403 4.992 112.275 5.376C112.147 5.744 112.043 6.048 111.963 6.288L110.499 10.344Z" fill="#383838"/>
<path d="M127.122 16.464V0H130.41L137.034 8.88C137.13 8.992 137.25 9.152 137.394 9.36C137.538 9.552 137.674 9.744 137.802 9.936C137.93 10.128 138.018 10.28 138.066 10.392H138.186C138.186 10.12 138.186 9.856 138.186 9.6C138.186 9.328 138.186 9.088 138.186 8.88V0H141.57V16.464H138.282L131.514 7.368C131.354 7.144 131.186 6.896 131.01 6.624C130.834 6.352 130.706 6.144 130.626 6H130.506C130.506 6.24 130.506 6.48 130.506 6.72C130.506 6.944 130.506 7.16 130.506 7.368V16.464H127.122Z" fill="#383838"/>
<path d="M156.887 16.464V0H170.039V2.928H160.487V6.6H168.935V9.504H160.487V13.512H170.183V16.464H156.887Z" fill="#383838"/>
<path d="M176.75 16.464V0H180.326V13.416H188.63V16.464H176.75Z" fill="#383838"/>
<path d="M196.115 16.464V9.84L189.731 0H193.883L197.963 6.624H198.083L202.139 0H206.051L199.715 9.84V16.464H196.115Z" fill="#383838"/>
</svg>
